HIERARCHY
ROOT hip
{
	OFFSET 0.000000 0.000000 0.000000
	CHANNELS 6 Xposition Yposition Zposition Xrotation Zrotation Yrotation 
	JOINT abdomen
	{
		OFFSET 0.000000 3.422050 0.000000
		CHANNELS 3 Xrotation Zrotation Yrotation 
		JOINT chest
		{
			OFFSET 0.000000 8.486693 -0.684411
			CHANNELS 3 Xrotation Zrotation Yrotation 
			JOINT neck
			{
				OFFSET 0.000000 10.266162 -0.273764
				CHANNELS 3 Xrotation Zrotation Yrotation 
				JOINT head
				{
					OFFSET 0.000000 3.148285 0.000000
					CHANNELS 3 Xrotation Zrotation Yrotation 
					End Site
					{
						OFFSET 0.000000 3.148289 0.000000
					}
				}
			}
			JOINT lCollar
			{
				OFFSET 3.422053 6.707223 -0.821293
				CHANNELS 3 Yrotation Zrotation Xrotation 
				JOINT lShldr
				{
					OFFSET 3.285171 0.000000 0.000000
					CHANNELS 3 Zrotation Yrotation Xrotation 
					JOINT lForeArm
					{
						OFFSET 10.129278 0.000000 0.000000
						CHANNELS 3 Yrotation Zrotation Xrotation 
						JOINT lHand
						{
							OFFSET 8.486692 0.000000 0.000000
							CHANNELS 3 Zrotation Yrotation Xrotation 
							End Site
							{
								OFFSET 4.106464 0.000000 0.000000
							}
						}
					}
				}
			}
			JOINT rCollar
			{
				OFFSET -3.558935 6.707223 -0.821293
				CHANNELS 3 Yrotation Zrotation Xrotation 
				JOINT rShldr
				{
					OFFSET -3.148289 0.000000 0.000000
					CHANNELS 3 Zrotation Yrotation Xrotation 
					JOINT rForeArm
					{
						OFFSET -10.266159 0.000000 0.000000
						CHANNELS 3 Yrotation Zrotation Xrotation 
						JOINT rHand
						{
							OFFSET -8.349810 0.000000 0.000000
							CHANNELS 3 Zrotation Yrotation Xrotation 
							End Site
							{
								OFFSET -4.106464 0.000000 0.000000
							}
						}
					}
				}
			}
		}
	}
	JOINT lThigh
	{
		OFFSET 5.338403 -1.642589 1.368821
		CHANNELS 3 Xrotation Zrotation Yrotation 
		JOINT lShin
		{
			OFFSET -2.053232 -20.121670 0.000000
			CHANNELS 3 Xrotation Zrotation Yrotation 
			JOINT lFoot
			{
				OFFSET 0.000000 -19.300380 -1.231939
				CHANNELS 3 Xrotation Yrotation Zrotation 
				End Site
				{
					OFFSET 0.000000 -2.463878 4.653993
				}
			}
		}
	}
	JOINT rThigh
	{
		OFFSET -5.338403 -1.642589 1.368821
		CHANNELS 3 Xrotation Zrotation Yrotation 
		JOINT rShin
		{
			OFFSET 2.053232 -20.121670 0.000000
			CHANNELS 3 Xrotation Zrotation Yrotation 
			JOINT rFoot
			{
				OFFSET 0.000000 -19.300380 -1.231939
				CHANNELS 3 Xrotation Yrotation Zrotation 
				End Site
				{
					OFFSET 0.000000 -2.463878 4.653993
				}
			}
		}
	}
}
MOTION
Frames: 16
Frame Time: 0.033264
0.393483 14.226437 5.941990 -91.706055 0.197231 -179.796234 -10.027307 -0.245942 -0.431617 -7.976157 -0.329945 -0.903079 -2.957421 6.998616 -5.001661 -13.086019 0.000000 0.000000 -17.130598 8.309793 8.908977 -6.656324 -30.040699 -19.950073 -44.995422 -4.002649 7.306952 59.437904 -5.954079 -1.788188 2.682774 22.749716 2.434176 16.403189 41.133144 12.137791 27.385012 -16.286982 -6.582361 -57.904991 4.044794 0.774240 -33.658802 13.034782 16.472731 30.750000 -3.412024 -1.941999 57.384621 -6.386880 -1.893618 -34.663017 -13.636959 -16.289400 32.631329 3.520951 2.366985 57.607033 6.522212 1.872544 
0.393483 14.274196 5.982841 -92.562126 0.208031 -179.788849 -10.832291 -0.245916 -0.431619 -7.550426 -0.329925 -0.903081 -3.411484 6.998627 -5.001648 -13.152589 0.000000 0.000000 -16.710238 8.724790 8.538057 -6.706324 -30.168621 -19.921196 -45.490841 -4.066790 7.269124 59.464344 -5.622433 -1.689849 2.437852 22.521194 2.328205 16.542755 41.358498 12.240982 27.664923 -16.354639 -6.505833 -58.023304 3.820693 0.727223 -34.784912 13.206052 16.751133 31.120476 -3.401672 -1.960049 57.358093 -6.480291 -1.575006 -35.754223 -13.788964 -16.588055 32.943817 3.494590 2.383354 57.610992 6.608405 1.544524 
0.393483 14.321955 6.023691 -93.417908 0.218936 -179.781616 -11.637039 -0.245889 -0.431622 -7.124726 -0.329904 -0.903081 -3.865675 6.998635 -5.001635 -13.219159 0.000000 0.000000 -16.286776 9.136994 8.163720 -6.756463 -30.296516 -19.892149 -45.986279 -4.130595 7.230742 59.491325 -5.290846 -1.591416 2.192891 22.293098 2.221360 16.683346 41.583649 12.345263 27.945032 -16.421944 -6.428940 -58.141376 3.596502 0.680682 -35.910179 13.382493 17.026035 31.490929 -3.391206 -1.978031 57.332069 -6.573841 -1.256395 -36.844616 -13.946363 -16.883677 33.256264 3.468142 2.399578 57.615452 6.694571 1.216456 
0.393483 14.369715 6.064542 -94.273308 0.229944 -179.774536 -12.441466 -0.245862 -0.431625 -6.699075 -0.329883 -0.903082 -4.319982 6.998644 -5.001620 -13.285730 0.000000 0.000000 -15.860207 9.546331 7.785963 -6.806741 -30.424391 -19.862940 -46.481728 -4.194057 7.191811 59.518871 -4.959334 -1.492884 1.947891 22.065456 2.113646 16.824972 41.808601 12.450645 28.225304 -16.488874 -6.351679 -58.259228 3.372223 0.634618 -37.034370 13.563984 17.297277 31.861334 -3.380624 -1.995943 57.306580 -6.667528 -0.937788 -37.933937 -14.109043 -17.176100 33.568676 3.441607 2.415655 57.620411 6.780703 0.888347 
0.393483 14.417473 6.105392 -95.128204 0.241049 -179.767654 -13.245500 -0.245836 -0.431629 -6.273483 -0.329863 -0.903082 -4.774388 6.998654 -5.001608 -13.352293 0.000000 0.000000 -15.430528 9.952735 7.404789 -6.857160 -30.552238 -19.833559 -46.977169 -4.257168 7.152336 59.546963 -4.627899 -1.394250 1.702848 21.838261 2.005069 16.967655 42.033360 12.557148 28.505753 -16.555443 -6.274057 -58.376884 3.147864 0.589028 -38.157238 13.750398 17.564705 32.231705 -3.369929 -2.013785 57.281601 -6.761344 -0.619189 -39.021984 -14.276903 -17.465178 33.881050 3.414987 2.431585 57.625877 6.866800 0.560201 
0.393483 14.465233 6.146244 -95.982574 0.252248 -179.760925 -14.049059 -0.245810 -0.431633 -5.847960 -0.329842 -0.903083 -5.228881 6.998662 -5.001594 -13.418855 0.000000 0.000000 -14.997738 10.356139 7.020199 -6.907719 -30.680056 -19.804005 -47.472591 -4.319923 7.112320 59.575630 -4.296549 -1.295508 1.457761 21.611534 1.895634 17.111393 42.257885 12.664771 28.786379 -16.621641 -6.196074 -58.494328 2.923424 0.543911 -39.278564 13.941600 17.828173 32.602009 -3.359120 -2.031553 57.257160 -6.855289 -0.300601 -40.108521 -14.449817 -17.750751 34.193378 3.388283 2.447368 57.631832 6.952854 0.232019 
0.393483 14.512992 6.187094 -96.836266 0.263538 -179.754379 -14.852062 -0.245783 -0.431637 -5.422520 -0.329821 -0.903083 -5.683444 6.998674 -5.001581 -13.485415 0.000000 0.000000 -14.561846 10.756475 6.632200 -6.958424 -30.807856 -19.774286 -47.967953 -4.382314 7.071769 59.604836 -3.965292 -1.196654 1.212628 21.385277 1.785345 17.256208 42.482204 12.773539 29.067165 -16.687464 -6.117733 -58.611553 2.698908 0.499267 -40.398117 14.137451 18.087536 32.972256 -3.348198 -2.049249 57.233234 -6.949355 0.017971 -41.193344 -14.627668 -18.032677 34.505676 3.361498 2.463004 57.638287 7.038864 -0.096191 
0.393483 14.560751 6.227945 -97.689209 0.274914 -179.748001 -15.654435 -0.245757 -0.431642 -4.997173 -0.329801 -0.903083 -6.138067 6.998684 -5.001568 -13.551970 0.000000 0.000000 -14.122843 11.153673 6.240792 -7.009274 -30.935627 -19.744394 -48.463257 -4.444335 7.030690 59.634621 -3.634135 -1.097683 0.967447 21.159496 1.674207 17.402121 42.706306 12.883464 29.348122 -16.752914 -6.039036 -58.728577 2.474319 0.455095 -41.515667 14.337807 18.342667 33.342442 -3.337164 -2.066871 57.209843 -7.043540 0.336524 -42.276234 -14.810328 -18.310820 34.817902 3.334630 2.478490 57.645226 7.124821 -0.424426 
0.393483 14.608510 6.268795 -98.541275 0.286372 -179.741806 -16.456097 -0.245731 -0.431647 -4.571934 -0.329780 -0.903083 -6.592730 6.998694 -5.001554 -13.618523 0.000000 0.000000 -13.680743 11.547667 5.845989 -7.060267 -31.063374 -19.714334 -48.958481 -4.505978 6.989084 59.664932 -3.303083 -0.998591 0.722218 20.934208 1.562227 17.549133 42.930183 12.994557 29.629230 -16.817984 -5.959986 -58.845406 2.249662 0.411393 -42.631001 14.542524 18.593430 33.712532 -3.326018 -2.084417 57.186974 -7.137837 0.655054 -43.356979 -14.997662 -18.585033 35.130066 3.307681 2.493826 57.652672 7.210725 -0.752681 
0.393483 14.656269 6.309646 -99.392426 0.297909 -179.735779 -17.256969 -0.245705 -0.431652 -4.146810 -0.329759 -0.903082 -7.047423 6.998703 -5.001542 -13.685075 0.000000 0.000000 -13.235552 11.938393 5.447796 -7.111405 -31.191093 -19.684099 -49.453598 -4.567236 6.946957 59.695812 -2.972146 -0.899373 0.476939 20.709417 1.449409 17.697264 43.153824 13.106833 29.910509 -16.882683 -5.880588 -58.962025 2.024938 0.368160 -43.743900 14.751441 18.839699 34.082558 -3.314762 -2.101888 57.164642 -7.232244 0.973557 -44.435360 -15.189528 -18.855192 35.442188 3.280655 2.509013 57.660614 7.296570 -1.080954 
0.393483 14.704028 6.350497 -100.242538 0.309519 -179.729935 -18.056978 -0.245679 -0.431658 -3.721816 -0.329739 -0.903082 -7.502129 6.998713 -5.001528 -13.751623 0.000000 0.000000 -12.787264 12.325779 5.046218 -7.162691 -31.318785 -19.653687 -49.948605 -4.628106 6.904315 59.727264 -2.641330 -0.800025 0.231606 20.485136 1.335757 17.846527 43.377228 13.220303 30.191933 -16.946993 -5.800841 -59.078453 1.800151 0.325394 -44.854149 14.964405 19.081360 34.452484 -3.303397 -2.119281 57.142822 -7.326754 1.292031 -45.511211 -15.385796 -19.121170 35.754223 3.253550 2.524049 57.669037 7.382351 -1.409239 
0.393483 14.751787 6.391347 -101.091499 0.321199 -179.724258 -18.856047 -0.245653 -0.431664 -3.296962 -0.329718 -0.903082 -7.956835 6.998724 -5.001515 -13.818165 0.000000 0.000000 -12.335903 12.709766 4.641274 -7.214124 -31.446455 -19.623108 -50.443466 -4.688578 6.861163 59.759258 -2.310641 -0.700542 -0.013779 20.261370 1.221279 17.996931 43.600380 13.334982 30.473503 -17.010918 -5.720745 -59.194691 1.575305 0.283096 -45.961571 15.181262 19.318304 34.822308 -3.291922 -2.136595 57.121540 -7.421362 1.610469 -46.584301 -15.586308 -19.382845 36.066196 3.226369 2.538934 57.677979 7.468068 -1.737531 
0.393483 14.799547 6.432199 -101.939270 0.332945 -179.718781 -19.654102 -0.245627 -0.431671 -2.872260 -0.329698 -0.903081 -8.411528 6.998732 -5.001501 -13.884706 0.000000 0.000000 -11.881468 13.090284 4.232971 -7.265704 -31.574091 -19.592354 -50.938179 -4.748645 6.817506 59.791824 -1.980087 -0.600919 -0.259220 20.038130 1.105977 18.148499 43.823292 13.450887 30.755226 -17.074453 -5.640307 -59.310715 1.350402 0.241264 -47.065941 15.401839 19.550426 35.192028 -3.280338 -2.153829 57.100777 -7.516065 1.928871 -47.654472 -15.790923 -19.640108 36.378098 3.199113 2.553668 57.687416 7.553713 -2.065829 
0.393483 14.847305 6.473049 -102.785698 0.344752 -179.713486 -20.451059 -0.245602 -0.431677 -2.447722 -0.329677 -0.903080 -8.866192 6.998744 -5.001489 -13.951242 0.000000 0.000000 -11.423979 13.467273 3.821329 -7.317434 -31.701702 -19.561420 -51.432720 -4.808305 6.773349 59.824951 -1.649676 -0.501153 -0.504716 19.815420 0.989859 18.301245 44.045956 13.568031 31.037086 -17.137602 -5.559532 -59.426575 1.125448 0.199897 -48.167068 15.625974 19.777624 35.561634 -3.268648 -2.170985 57.080563 -7.610860 2.247233 -48.721523 -15.999486 -19.892855 36.689907 3.171782 2.568249 57.697327 7.639278 -2.394124 
0.393483 14.895065 6.513900 -103.630775 0.356617 -179.708359 -21.246853 -0.245576 -0.431685 -2.023360 -0.329656 -0.903079 -9.320813 6.998754 -5.001476 -14.017773 0.000000 0.000000 -10.963445 13.840668 3.406360 -7.369313 -31.829279 -19.530306 -51.927063 -4.867549 6.728701 59.858639 -1.319415 -0.401238 -0.750269 19.593256 0.872928 18.455177 44.268349 13.686431 31.319096 -17.200363 -5.478419 -59.542221 0.900444 0.158993 -49.264774 15.853501 19.999815 35.931110 -3.256852 -2.188058 57.060871 -7.705739 2.565547 -49.785263 -16.211838 -20.140970 37.001640 3.144378 2.582677 57.707745 7.724765 -2.722414 
0.393483 14.942824 6.554750 -104.474342 0.368535 -179.703430 -22.041407 -0.245551 -0.431692 -1.599183 -0.329636 -0.903078 -9.775374 6.998764 -5.001462 -14.084304 0.000000 0.000000 -10.499880 14.210403 2.988081 -7.421346 -31.956829 -19.499022 -52.421215 -4.926371 6.683562 59.892872 -0.989308 -0.301169 -0.995881 19.371645 0.755191 18.610327 44.490501 13.806104 31.601231 -17.262728 -5.396972 -59.657692 0.675394 0.118553 -50.358868 16.084238 20.216904 36.300457 -3.244949 -2.205049 57.041714 -7.800698 2.883815 -50.845539 -16.427828 -20.384378 37.313278 3.116904 2.596952 57.718636 7.810167 -3.050696 
